<?xml version="1.0" encoding="UTF-8"?>
<svg version="1.1" xmlns="http://www.w3.org/2000/svg" width="128" height="128">
<path d="M0 0 C3.51702291 1.87688274 6.92825555 3.89121003 10.32617188 5.97216797 C11.562034 6.70831451 12.79910848 7.44242931 14.03735352 8.17456055 C16.50546178 9.63680467 18.96684171 11.10948431 21.42382812 12.59033203 C24.5091112 14.44307687 27.62652033 16.23177583 30.76367188 17.99560547 C31.62935791 18.48375732 32.49504395 18.97190918 33.38696289 19.47485352 C34.96084007 20.3603268 36.53671289 21.24226667 38.11499023 22.11987305 C38.81245361 22.51843506 39.50991699 22.91699707 40.22851562 23.32763672 C40.82011475 23.66045654 41.41171387 23.99327637 42.02124023 24.33618164 C45.702475 26.94514669 48.56121268 29.11380243 49.52359009 33.65698242 C49.52756805 34.76775146 49.53154602 35.87852051 49.53564453 37.02294922 C49.55140533 38.28776123 49.56716614 39.55257324 49.58340454 40.85571289 C49.57445444 42.22787348 49.56419936 43.60002609 49.55273438 44.97216797 C49.55610529 46.38794369 49.56096021 47.80371658 49.56723022 49.21948242 C49.57458882 52.18192181 49.56393045 55.14360571 49.54052734 58.10595703 C49.51203811 61.89604323 49.52844781 65.6843592 49.55838966 69.47438049 C49.57649128 72.39649705 49.57069195 75.31819654 49.5577507 78.24032593 C49.5544245 79.63732108 49.55847619 81.03435458 49.57014847 82.43130493 C49.58290035 84.38632444 49.56000463 86.3414774 49.53564453 88.29638672 C49.52967758 89.96254028 49.52967758 89.96254028 49.52359009 91.66235352 C48.47378657 96.61825366 45.13596281 98.84095212 41.05224609 101.52148438 C40.02631348 102.09560059 39.00038086 102.6697168 37.94335938 103.26123047 C37.38007935 103.5799411 36.81679932 103.89865173 36.2364502 104.22702026 C34.41666587 105.2544477 32.59066238 106.27011826 30.76367188 107.28466797 C28.23104092 108.70148094 25.70045905 110.12193215 23.16992188 111.54248047 C22.54411224 111.89260193 21.91830261 112.24272339 21.27352905 112.60345459 C17.52244881 114.71025854 13.82958595 116.88829524 10.16992188 119.15185547 C9.32961426 119.66538574 8.48930664 120.17891602 7.62353516 120.70800781 C6.10592402 121.64156004 4.59804965 122.59123185 3.10302734 123.56054688 C-2.24792106 126.81209222 -6.90563275 128.01389789 -13.11132812 126.65966797 C-17.77242721 124.66905989 -22.04702359 122.11211814 -26.36132812 119.47216797 C-27.5872388 118.74279062 -28.81430615 118.01535412 -30.04248047 117.28979492 C-32.53213932 115.81498719 -35.01426538 114.32857439 -37.49121094 112.83251953 C-40.89088883 110.78363791 -44.32032936 108.78964382 -47.75976562 106.80810547 C-49.75217688 105.65484611 -51.74437688 104.50122168 -53.73632812 103.34716797 C-54.65961914 102.81518799 -55.58291016 102.28320801 -56.53417969 101.73510742 C-57.3769043 101.23970459 -58.21962891 100.74430176 -59.08789062 100.23388672 C-59.82088379 99.8068042 -60.55387695 99.37972168 -61.30908203 98.93969727 C-63.11132813 97.65966797 -63.11132813 97.65966797 -65.11132812 94.65966797 C-65.38548279 91.90286255 -65.38548279 91.90286255 -65.41772461 88.5234375 C-65.43371201 87.25847443 -65.4496994 85.99351135 -65.46617126 84.69021606 C-65.47254799 83.30764163 -65.47794073 81.92506235 -65.48242188 80.54248047 C-65.49138962 79.12384954 -65.5005115 77.70521957 -65.50978088 76.28659058 C-65.52626965 73.31245629 -65.53397071 70.33843455 -65.53686523 67.36425781 C-65.54224795 63.55857785 -65.57992161 59.75395993 -65.6256094 55.94857979 C-65.65539649 53.01797655 -65.66258913 50.0876285 -65.66359138 47.15688705 C-65.66779081 45.75426241 -65.68021433 44.35163682 -65.70110893 42.94916153 C-65.72804796 40.98451894 -65.72008678 39.01949232 -65.71069336 37.0546875 C-65.71576401 35.93788605 -65.72083466 34.82108459 -65.72605896 33.67044067 C-64.91331299 29.68984746 -63.17814691 28.23490018 -60.11132812 25.65966797 C-58.17430227 24.3882134 -56.18798645 23.18960885 -54.16601562 22.05810547 C-53.6027356 21.73939484 -53.03945557 21.4206842 -52.45910645 21.09231567 C-50.63932212 20.06488823 -48.81331863 19.04921768 -46.98632812 18.03466797 C-44.45369717 16.617855 -41.9231153 15.19740378 -39.39257812 13.77685547 C-38.76676849 13.42673401 -38.14095886 13.07661255 -37.4961853 12.71588135 C-33.74510506 10.6090774 -30.0522422 8.4310407 -26.39257812 6.16748047 C-25.55227051 5.6539502 -24.71196289 5.14041992 -23.84619141 4.61132812 C-22.32858027 3.6777759 -20.8207059 2.72810409 -19.32568359 1.75878906 C-12.81606565 -2.19683082 -7.12479275 -3.06929631 0 0 Z " fill="#B14796" transform="translate(72.111328125,1.34033203125)"/>
<path d="M0 0 C0.11596849 8.12773421 0.20475177 16.25512148 0.25906086 24.38347912 C0.28512982 28.1580501 0.32047629 31.93205414 0.37719727 35.70629883 C0.43161681 39.35030481 0.46144086 42.99376631 0.47438622 46.63814735 C0.48360857 48.02685427 0.50161853 49.41553215 0.52865028 50.80400658 C0.56506071 52.75209744 0.56704339 54.70073891 0.56762695 56.64916992 C0.57873001 57.7572551 0.58983307 58.86534027 0.60127258 60.00700378 C-0.19714066 63.98132075 -1.94150279 65.43048642 -5 68 C-6.93702586 69.27145457 -8.92334168 70.47005912 -10.9453125 71.6015625 C-11.50859253 71.92027313 -12.07187256 72.23898376 -12.65222168 72.56735229 C-14.472006 73.59477973 -16.29800949 74.61045029 -18.125 75.625 C-20.65763095 77.04181297 -23.18821283 78.46226418 -25.71875 79.8828125 C-26.34455963 80.23293396 -26.97036926 80.58305542 -27.61514282 80.94378662 C-31.36622307 83.05059057 -35.05908593 85.22862727 -38.71875 87.4921875 C-39.55905762 88.00571777 -40.39936523 88.51924805 -41.26513672 89.04833984 C-42.78274786 89.98189207 -44.29062222 90.93156388 -45.78564453 91.90087891 C-51.13659294 95.15242425 -55.79430462 96.35422993 -62 95 C-66.66106123 93.00940809 -70.935893 90.45273614 -75.25 87.8125 C-76.47519266 87.08314799 -77.70152726 86.3557111 -78.92895508 85.63012695 C-81.41773307 84.15508042 -83.89903861 82.66849594 -86.37548828 81.17285156 C-89.7856692 79.1189422 -93.22908406 77.12702824 -96.68359375 75.1484375 C-98.68505907 73.99507488 -100.68637022 72.84144469 -102.6875 71.6875 C-103.61916992 71.15552002 -104.55083984 70.62354004 -105.51074219 70.07543945 C-106.35668945 69.58003662 -107.20263672 69.08463379 -108.07421875 68.57421875 C-108.81244873 68.14713623 -109.55067871 67.72005371 -110.3112793 67.2800293 C-112 66 -112 66 -113 63 C-112.51120361 62.71278076 -112.02240723 62.42556152 -111.51879883 62.12963867 C-109.28322788 60.81582711 -107.04786236 59.50166642 -104.8125 58.1875 C-104.04357422 57.73568359 -103.27464844 57.28386719 -102.48242188 56.81835938 C-101.35610352 56.15610352 -101.35610352 56.15610352 -100.20703125 55.48046875 C-99.47822754 55.0529834 -98.74942383 54.62549805 -97.99853516 54.18505859 C-96.34388531 53.20391147 -94.70659074 52.19356192 -93.07421875 51.17578125 C-91 50 -91 50 -89 50 C-87.84375 51.50390625 -87.84375 51.50390625 -86.5 53.5625 C-81.11024805 60.95865596 -73.06687213 66.36884472 -64 68 C-51.91409773 69.16431352 -41.75334354 66.22283688 -32 59 C-29.71346393 56.85466436 -27.60957084 54.70224698 -26 52 C-26 51.01 -26 50.02 -26 49 C-28.54029079 47.02291875 -28.54029079 47.02291875 -31.75 45.25 C-32.81734375 44.61578125 -33.8846875 43.9815625 -34.984375 43.328125 C-37.78993294 41.81533632 -37.78993294 41.81533632 -40.2109375 42.14453125 C-42.62367438 43.29821984 -44.42829794 45.05110272 -46.4375 46.7890625 C-50.34769099 49.81946051 -55.05196339 50.51321363 -59.9140625 50.3828125 C-65.01737111 49.44625025 -68.84278895 46.18766397 -72.375 42.5625 C-75.60924651 37.46234204 -77.105945 32.02627175 -76 26 C-73.75513131 20.8980257 -70.65622011 17.10414674 -66 14 C-65.401875 13.5875 -64.80375 13.175 -64.1875 12.75 C-58.56529938 10.82238836 -53.18174671 11.80524494 -47.83203125 14 C-44.96966135 15.56240233 -43.12557697 17.54230162 -41 20 C-36.92220836 18.75582708 -33.45791257 17.26482458 -29.8125 15.0625 C-28.78769531 14.4540625 -27.76289062 13.845625 -26.70703125 13.21875 C-25.47115108 12.47950608 -24.2354967 11.73988462 -23 11 C-19.67378885 9.00857235 -16.33916891 7.03211147 -13 5.0625 C-12.1747583 4.56564697 -11.3495166 4.06879395 -10.49926758 3.55688477 C-9.71575928 3.09596436 -8.93225098 2.63504395 -8.125 2.16015625 C-7.07699219 1.53572632 -7.07699219 1.53572632 -6.0078125 0.89868164 C-4 0 -4 0 0 0 Z " fill="#972E88" transform="translate(121,33)"/>
<path d="M0 0 C4.40498648 3.29460846 8.18598605 6.88809815 11.35546875 11.38671875 C11.35546875 12.37671875 11.35546875 13.36671875 11.35546875 14.38671875 C9.11593819 15.78193431 6.86660265 17.15234659 4.60546875 18.51171875 C3.97125 18.91003906 3.33703125 19.30835937 2.68359375 19.71875 C0.80859375 20.83203125 0.80859375 20.83203125 -2.64453125 22.38671875 C-5.50906268 21.60018639 -6.73097259 20.31392605 -9.01953125 18.38671875 C-13.45113077 15.01026197 -17.96894725 13.8338078 -23.5625 14.015625 C-29.25776062 15.03072774 -33.39584895 18.55955135 -36.64453125 23.19921875 C-39.38107553 28.12684746 -39.38969717 32.09455128 -38.16796875 37.4921875 C-36.52429888 42.76975402 -34.1550741 45.25695432 -29.64453125 48.38671875 C-29.02578125 48.81984375 -28.40703125 49.25296875 -27.76953125 49.69921875 C-22.12311913 51.52599914 -16.81669106 50.56017683 -11.4609375 48.390625 C-9.32181438 47.31776257 -9.32181438 47.31776257 -6.89453125 44.63671875 C-6.15203125 43.89421875 -5.40953125 43.15171875 -4.64453125 42.38671875 C-0.7843865 42.68829256 2.35312974 45.00488565 5.60546875 46.94921875 C6.683125 47.58988281 7.76078125 48.23054688 8.87109375 48.890625 C9.6909375 49.38433594 10.51078125 49.87804687 11.35546875 50.38671875 C10.39768044 55.64287408 7.21266525 58.86168856 3.35546875 62.38671875 C-6.43883375 69.0229772 -15.86257892 71.56491398 -27.64453125 70.38671875 C-37.99766793 68.05656535 -46.2851412 62.23166207 -52.36328125 53.5703125 C-57.99328741 43.97527151 -60.44094268 33.45974843 -57.99609375 22.47265625 C-54.27983427 11.19682619 -46.63310588 2.44707698 -36.046875 -2.93359375 C-24.16891318 -7.82150322 -11.02123842 -6.72344382 0 0 Z " fill="#FDFCFD" transform="translate(84.64453125,31.61328125)"/>
<path d="M0 0 C1.15625 1.50390625 1.15625 1.50390625 2.5 3.5625 C7.88975195 10.95865596 15.93312787 16.36884472 25 18 C36.98950609 19.15502705 47.38286593 16.30652393 57 9 C59.86852886 6.15009795 62.48349532 3.16320421 65 0 C69.09101476 2.31556032 73.17450206 4.64334701 77.24707031 6.99121094 C78.73200229 7.84577068 80.22103004 8.69320726 81.7109375 9.5390625 C83.52680138 10.60760334 85.27393819 11.79175673 87 13 C87 13.99 87 14.98 87 16 C84.73652742 17.57623439 82.52962786 18.91688699 80.125 20.25 C79.38846191 20.67039551 78.65192383 21.09079102 77.89306641 21.52392578 C76.22082818 22.47818295 74.54599304 23.42789797 72.86914062 24.37402344 C69.09623374 26.51217523 65.34373205 28.6849805 61.59042358 30.8572998 C61.01514923 31.19024048 60.43987488 31.52318115 59.84716797 31.86621094 C59.27206482 32.19907104 58.69696167 32.53193115 58.10443115 32.87487793 C54.30991892 35.06922688 50.51322313 37.25933872 46.70214844 39.42480469 C45.11595976 40.34946039 43.54638293 41.3060738 42.02441406 42.33300781 C38.00947124 45.00260494 34.53460711 45.79509116 29.80273438 45.58349609 C23.86162882 44.3466283 18.86692724 40.94406262 13.75 37.8125 C12.52480734 37.08314799 11.29847274 36.3557111 10.07104492 35.63012695 C7.58226693 34.15508042 5.10096139 32.66849594 2.62451172 31.17285156 C-0.7856692 29.1189422 -4.22908406 27.12702824 -7.68359375 25.1484375 C-9.68505907 23.99507488 -11.68637022 22.84144469 -13.6875 21.6875 C-14.61916992 21.15552002 -15.55083984 20.62354004 -16.51074219 20.07543945 C-17.35668945 19.58003662 -18.20263672 19.08463379 -19.07421875 18.57421875 C-19.81244873 18.14713623 -20.55067871 17.72005371 -21.3112793 17.2800293 C-23 16 -23 16 -24 13 C-23.51120361 12.71278076 -23.02240723 12.42556152 -22.51879883 12.12963867 C-20.28322788 10.81582711 -18.04786236 9.50166642 -15.8125 8.1875 C-15.04357422 7.73568359 -14.27464844 7.28386719 -13.48242188 6.81835938 C-12.73154297 6.37685547 -11.98066406 5.93535156 -11.20703125 5.48046875 C-10.11382568 4.83924072 -10.11382568 4.83924072 -8.99853516 4.18505859 C-7.34388531 3.20391147 -5.70659074 2.19356192 -4.07421875 1.17578125 C-2 0 -2 0 0 0 Z " fill="#79247A" transform="translate(32,83)"/>
<path d="M0 0 C2.29120011 1.31541122 3.58957384 2.73625402 5.25488281 4.77661133 C5.77679199 5.40881592 6.29870117 6.04102051 6.83642578 6.69238281 C7.4186792 7.41663452 7.4186792 7.41663452 8.01269531 8.15551758 C7.46967773 8.45208252 6.92666016 8.74864746 6.3671875 9.05419922 C3.8314027 10.44040321 1.29683785 11.82881353 -1.23730469 13.21801758 C-2.60218018 13.96595581 -2.60218018 13.96595581 -3.99462891 14.72900391 C-10.02484563 18.04492727 -15.98121261 21.44928342 -21.87011719 25.01098633 C-23.98730469 26.15551758 -23.98730469 26.15551758 -25.98730469 26.15551758 C-27.8390794 21.5260808 -28.89635528 17.1089157 -27.98730469 12.15551758 C-25.742436 7.05354328 -22.6435248 3.25966432 -17.98730469 0.15551758 C-17.38917969 -0.25698242 -16.79105469 -0.66948242 -16.17480469 -1.09448242 C-10.75621096 -2.95228598 -5.18730721 -2.1781522 0 0 Z " fill="#B24A97" transform="translate(72.9873046875,46.844482421875)"/>
<path d="M0 0 C1.20849609 0.72123047 1.20849609 0.72123047 2.44140625 1.45703125 C3.46878906 2.02679688 4.49617188 2.5965625 5.5546875 3.18359375 C6.61042969 3.81007813 7.66617188 4.4365625 8.75390625 5.08203125 C9.82253906 5.71367188 10.89117187 6.3453125 11.9921875 6.99609375 C13.20455078 7.71925781 13.20455078 7.71925781 14.44140625 8.45703125 C12.25548488 13.20644223 9.430843 15.57283714 4.62890625 17.70703125 C-1.45485855 19.13850532 -5.52100078 19.40367046 -10.87109375 16.14453125 C-13.3693324 14.45707999 -15.47935189 12.63863579 -17.55859375 10.45703125 C-16.181406 6.325468 -13.4020289 5.20675567 -9.80859375 3.14453125 C-9.18726563 2.75974609 -8.5659375 2.37496094 -7.92578125 1.97851562 C-3.30004216 -0.70031429 -3.30004216 -0.70031429 0 0 Z " fill="#7B277B" transform="translate(65.55859375,64.54296875)"/>
<path d="M0 0 C1.32 0 2.64 0 4 0 C4 0.99 4 1.98 4 3 C5.65 3 7.3 3 9 3 C9 2.01 9 1.02 9 0 C10.32 0 11.64 0 13 0 C13 0.99 13 1.98 13 3 C13.99 3 14.98 3 16 3 C16 4.32 16 5.64 16 7 C15.01 7 14.02 7 13 7 C13 8.32 13 9.64 13 11 C13.99 11 14.98 11 16 11 C16 12.32 16 13.64 16 15 C14.68 15 13.36 15 12 15 C12 15.99 12 16.98 12 18 C11.01 18 10.02 18 9 18 C9 17.01 9 16.02 9 15 C7.35 15 5.7 15 4 15 C4 15.99 4 16.98 4 18 C3.01 18 2.02 18 1 18 C1 17.01 1 16.02 1 15 C-0.32 15 -1.64 15 -3 15 C-3 13.68 -3 12.36 -3 11 C-2.01 11 -1.02 11 0 11 C0 9.68 0 8.36 0 7 C-0.99 7 -1.98 7 -3 7 C-3 5.68 -3 4.36 -3 3 C-2.01 3 -1.02 3 0 3 C0 2.01 0 1.02 0 0 Z " fill="#F5EBF3" transform="translate(97,55)"/>
<path d="M0 0 C1.65 0 3.3 0 5 0 C5 1.32 5 2.64 5 4 C3.35 4 1.7 4 0 4 C0 2.68 0 1.36 0 0 Z " fill="#9F3E91" transform="translate(101,62)"/>
</svg>
