<svg width="512" height="512" viewBox="0 0 512 512" fill="none" xmlns="http://www.w3.org/2000/svg">
<path d="M363.722 244.664H377.907L376.063 262H361.927L363.722 244.664ZM483.48 147.408V364.592C482.999 378.308 476.027 390.57 463.779 398.716L275.691 507.307C264.856 513.564 247.124 513.564 236.289 507.307L48.2009 398.716C36.7856 391.232 29.343 379.164 28.5 364.592V147.408C28.5 134.896 37.3646 119.539 48.2009 113.284L236.289 4.69249C247.124 -1.56416 264.856 -1.56416 275.691 4.69249L463.779 113.284C475.157 120.965 483.04 134.243 483.48 147.408ZM387.331 331.872L321.696 293.893C277.914 363.979 181.22 329.73 180.16 256.001C183.691 176.002 282.07 152.57 321.692 218.104L387.326 180.123C301.789 42.5217 103.439 107.912 104.33 256.001C108.132 415.653 311.948 462.735 387.331 331.872ZM403 232.592H391.747L393.776 213H381.276L379.192 232.592H364.972L367 213H354.5L352.416 232.592H340.5V244.664H351.132L349.288 262H337V274.072H348.004L345.724 295.5H358.459L360.678 274.072H374.779L372.5 295.5H385.235L387.453 274.072H399.5V262H388.703L390.497 244.664H403V232.592Z" fill="#0277BD"/>
</svg>
