<svg width="42" height="42" viewBox="0 0 42 42" fill="none" xmlns="http://www.w3.org/2000/svg">
<path d="M41.16 21.4773C41.16 19.9882 41.0264 18.5564 40.7782 17.1818H21V25.305H32.3018C31.815 27.93 30.3356 30.1541 28.1114 31.6432V36.9123H34.8982C38.8691 33.2564 41.16 27.8727 41.16 21.4773Z" fill="#4285F4"/>
<path d="M21 42C26.67 42 31.4235 40.1194 34.898 36.9123L28.1112 31.6432C26.2309 32.9032 23.8253 33.6477 21 33.6477C15.5303 33.6477 10.9009 29.9536 9.24944 24.99H2.23355V30.4309C5.6891 37.2941 12.7909 42 21 42Z" fill="#34A853"/>
<path d="M9.24945 24.99C8.82945 23.73 8.59089 22.3841 8.59089 21C8.59089 19.6159 8.82945 18.27 9.24945 17.01V11.5691H2.23356C0.811439 14.4041 0 17.6114 0 21C0 24.3885 0.811439 27.5959 2.23356 30.4309L9.24945 24.99Z" fill="#FBBC04"/>
<path d="M21 8.35233C24.083 8.35233 26.8512 9.41178 29.0277 11.4927L35.0509 5.46945C31.4141 2.08089 26.6603 0 21 0C12.7909 0 5.6891 4.70589 2.23355 11.5691L9.24944 17.01C10.9009 12.0464 15.5303 8.35233 21 8.35233Z" fill="#E94235"/>
</svg>
